<svg xmlns="http://www.w3.org/2000/svg" viewBox="0 0 64 64" id="bank"><path fill="#96a1c3" d="M18 33.82v13.36A3 3 0 0 1 20 50v2a1 1 0 0 1-1 1H9a1 1 0 0 1-1-1v-2a3 3 0 0 1 2-2.82V33.82A3 3 0 0 1 8 31v-2a1 1 0 0 1 1-1h10a1 1 0 0 1 1 1v2a3 3 0 0 1-2 2.82Z"></path><path fill="#ccd3eb" d="M18 33.82v13.36A3 3 0 0 1 20 50v2a1 1 0 0 1-1 1h-7a.22.22 0 0 1 0-.08v-2.16a3.26 3.26 0 0 1 2-3V33.29a3.26 3.26 0 0 1-2-3.05v-2.16a.22.22 0 0 1 0-.08h7a1 1 0 0 1 1 1v2a3 3 0 0 1-2 2.82Z"></path><path fill="#96a1c3" d="M36 33.82v13.36A3 3 0 0 1 38 50v2a1 1 0 0 1-1 1H27a1 1 0 0 1-1-1v-2a3 3 0 0 1 2-2.82V33.82A3 3 0 0 1 26 31v-2a1 1 0 0 1 1-1h10a1 1 0 0 1 1 1v2a3 3 0 0 1-2 2.82Z"></path><path fill="#ccd3eb" d="M36 33.82v13.36A3 3 0 0 1 38 50v2a1 1 0 0 1-1 1h-7a.22.22 0 0 1 0-.08v-2.16a3.26 3.26 0 0 1 2-3V33.29a3.26 3.26 0 0 1-2-3.05v-2.16a.22.22 0 0 1 0-.08h7a1 1 0 0 1 1 1v2a3 3 0 0 1-2 2.82Z"></path><path fill="#96a1c3" d="M54 33.82v13.36A3 3 0 0 1 56 50v2a1 1 0 0 1-1 1H45a1 1 0 0 1-1-1v-2a3 3 0 0 1 2-2.82V33.82A3 3 0 0 1 44 31v-2a1 1 0 0 1 1-1h10a1 1 0 0 1 1 1v2a3 3 0 0 1-2 2.82Z"></path><path fill="#ccd3eb" d="M54 33.82v13.36A3 3 0 0 1 56 50v2a1 1 0 0 1-1 1h-7a.22.22 0 0 1 0-.08v-2.16a3.26 3.26 0 0 1 2-3V33.29a3.26 3.26 0 0 1-2-3.05v-2.16a.22.22 0 0 1 0-.08h7a1 1 0 0 1 1 1v2a3 3 0 0 1-2 2.82zM57 22a1 1 0 0 1-1 1H8a1 1 0 0 1-.94-.66 1 1 0 0 1 .31-1.11l.27-.23 9.55-7.81 10.63-8.7a6.29 6.29 0 0 1 1.44-.89 5.57 5.57 0 0 1 1.06-.38 6.52 6.52 0 0 1 3.36 0 4.46 4.46 0 0 1 .73.24l.33.14a6.5 6.5 0 0 1 1.14.66l.3.23 9 7.37 3.08 2.52.74.62 3.09 2.53 3 2.45 1.23 1 .27.23A1 1 0 0 1 57 22z"></path><path fill="#f5f7ff" d="M55.13 20H17a1 1 0 0 1-.94-.66 1 1 0 0 1 .31-1.11l.27-.23 9.55-7.81 8.22-6.73.33.14a6.5 6.5 0 0 1 1.14.66l.3.23 9 7.37 3.08 2.52.74.62 3.09 2.53Z"></path><rect width="56" height="9" x="4" y="21" fill="#ccd3eb" rx="3" ry="3"></rect><path fill="#f5f7ff" d="M32.38 12h-1a.5.5 0 1 1 0-1H34a1 1 0 0 0 0-2h-1V8a1 1 0 0 0-2 0v1a2.49 2.49 0 0 0 .38 5h1a.5.5 0 0 1 0 1H30a1 1 0 0 0 0 2h1v1a1 1 0 0 0 2 0v-1.09a2.49 2.49 0 0 0-.62-4.91Z"></path><path fill="#96a1c3" d="M56 51H8a5 5 0 0 0-5 5v4a1 1 0 0 0 1 1h56a1 1 0 0 0 1-1v-4a5 5 0 0 0-5-5Z"></path><path fill="#033c59" d="M49.18 16.42a1 1 0 0 1-.77.37.94.94 0 0 1-.63-.23l-.78-.64a1 1 0 0 1 1.26-1.54L49 15a1 1 0 0 1 .18 1.42Z"></path><path fill="#0074ff" d="M31.38 11H34a1 1 0 0 0 0-2h-1V8a1 1 0 0 0-2 0v1a2.49 2.49 0 0 0 .38 5h1a.5.5 0 0 1 0 1H30a1 1 0 0 0 0 2h1v1a1 1 0 0 0 2 0v-1.09a2.49 2.49 0 0 0-.62-4.91h-1a.5.5 0 1 1 0-1Z"></path><path fill="#033c59" d="M56 51v-1a3 3 0 0 0-2-2.82V33.82A3 3 0 0 0 56 31v-1h1a3 3 0 0 0 3-3v-3a3 3 0 0 0-3-3h-.64l-4.23-3.45a1 1 0 1 0-1.26 1.54L53.2 21H10.8L29.08 6a4.77 4.77 0 0 1 5.17-.45 4.9 4.9 0 0 1 .67.45l9 7.36a1 1 0 0 0 1.26-1.54l-9-7.36a3.55 3.55 0 0 0-.31-.23 5.61 5.61 0 0 0-1.13-.67 6.58 6.58 0 0 0-6.92.9l-10.63 8.73L7.64 21H7a3 3 0 0 0-3 3v3a3 3 0 0 0 3 3h1v1a3 3 0 0 0 2 2.82v13.36A3 3 0 0 0 8 50v1a5 5 0 0 0-5 5v4a1 1 0 0 0 1 1h56a1 1 0 0 0 1-1v-4a5 5 0 0 0-5-5Zm-2-20a1 1 0 0 1-1 1h-6a1 1 0 0 1-1-1v-1h8ZM36 47.18V33.82A3 3 0 0 0 38 31v-1h6v1a3 3 0 0 0 2 2.82v13.36A3 3 0 0 0 44 50v1h-6v-1a3 3 0 0 0-2-2.82Zm-18 0V33.82A3 3 0 0 0 20 31v-1h6v1a3 3 0 0 0 2 2.82v13.36A3 3 0 0 0 26 50v1h-6v-1a3 3 0 0 0-2-2.82ZM11 32a1 1 0 0 1-1-1v-1h8v1a1 1 0 0 1-1 1Zm5 2v13h-4V34Zm12 16a1 1 0 0 1 1-1h6a1 1 0 0 1 1 1v1h-8Zm2-3V34h4v13Zm5-15h-6a1 1 0 0 1-1-1v-1h8v1a1 1 0 0 1-1 1Zm11 18a1 1 0 0 1 1-1h6a1 1 0 0 1 1 1v1h-8Zm2-3V34h4v13ZM7 28a1 1 0 0 1-1-1v-3a1 1 0 0 1 1-1h50a1 1 0 0 1 1 1v3a1 1 0 0 1-1 1Zm3 22a1 1 0 0 1 1-1h6a1 1 0 0 1 1 1v1h-8Zm49 9H5v-3a3 3 0 0 1 3-3h48a3 3 0 0 1 3 3Z"></path></svg>